<?xml version="1.0" encoding="UTF-8" standalone="no"?>
<svg
   xmlns:dc="http://purl.org/dc/elements/1.1/"
   xmlns:cc="http://creativecommons.org/ns#"
   xmlns:rdf="http://www.w3.org/1999/02/22-rdf-syntax-ns#"
   xmlns:svg="http://www.w3.org/2000/svg"
   xmlns="http://www.w3.org/2000/svg"
   viewBox="0 0 1145.1973 816.37732"
   height="500"
   width="700"
   xml:space="preserve"
   id="svg2"
   version="1.1"
   preserveAspectRatio="xMidYMid meet"><metadata
     id="metadata8"><rdf:RDF><cc:Work
         rdf:about=""><dc:format>image/svg+xml</dc:format><dc:type
           rdf:resource="http://purl.org/dc/dcmitype/StillImage" /></cc:Work></rdf:RDF></metadata><defs
     id="defs6"><clipPath
       id="clipPath18"
       clipPathUnits="userSpaceOnUse"><path
         id="path16"
         d="M 0,612.283 H 858.898 V 0 H 0 Z" /></clipPath></defs><g
     transform="matrix(1.3333333,0,0,-1.3333333,0,816.37733)"
     id="g10"><g
       id="g12"><g
         clip-path="url(#clipPath18)"
         id="g14"><g
           transform="translate(330.1896,348.6559)"
           id="g20"><path
             id="path22"
             style="fill:#3b3535;fill-opacity:1;fill-rule:nonzero;stroke:none"
             d="m 0,0 c 7.29,0 13.606,-0.92 20.364,-3.746 1.263,-0.528 1.44,-1.544 0.909,-2.958 -0.199,-0.531 -1.557,-3.832 -2.366,-5.896 -0.343,-0.876 -0.961,-1.612 -2.515,-1.006 -4.429,1.728 -10.246,3.082 -15.525,3.082 -3.652,0 -7.42,-1.354 -9.186,-2.944 -1.926,-1.733 -2.827,-4.912 -2.827,-7.538 0,-3.143 3.062,-6.831 5.182,-8.598 2.631,-2.192 5.096,-3.913 12.249,-7.656 7.598,-3.975 11.885,-7.016 14.606,-10.953 2.72,-3.939 4.475,-9.305 4.005,-15.548 -0.54,-7.14 -2.717,-11.224 -7.421,-15.547 -4.358,-4.005 -11.118,-6.007 -18.492,-6.007 -4.797,0 -9.972,0.594 -13.427,1.767 -3.167,1.075 -5.936,1.981 -9.803,3.708 -0.298,0.132 -1.063,0.789 -0.666,1.815 0.842,2.179 2.63,6.935 2.957,7.65 0.327,0.717 1.063,0.923 1.842,0.594 7.282,-3.766 11.492,-4.928 18.128,-4.928 3.545,0 7.212,0.465 9.921,2.821 3.019,2.626 3.062,5.773 3.062,8.598 0,3.859 -2.532,7.185 -6.772,10.011 -3.066,2.044 -5.94,4.246 -10.895,6.949 -6.803,3.711 -10.365,6.243 -13.781,10.13 -3.256,3.705 -5.065,8.883 -5.065,14.134 0,7.001 2.245,11.673 6.936,15.83 C -13.891,-2.079 -7.697,0 0,0" /></g><g
           transform="translate(388.422,305.8708)"
           id="g24"><path
             id="path26"
             style="fill:#3b3535;fill-opacity:1;fill-rule:nonzero;stroke:none"
             d="m 0,0 c 0,-6.116 1.114,-11.614 3.345,-16.498 2.231,-4.881 5.337,-8.665 9.32,-11.348 3.982,-2.684 8.487,-4.026 13.515,-4.026 7.612,0 13.868,2.97 18.772,8.909 4.902,5.938 7.355,13.593 7.355,22.963 0,6.113 -1.107,11.623 -3.32,16.529 -2.212,4.904 -5.328,8.698 -9.344,11.382 -4.019,2.683 -8.542,4.025 -13.569,4.025 -5.028,0 -9.552,-1.353 -13.568,-4.058 C 8.487,25.173 5.397,21.389 3.238,16.529 1.078,11.667 0,6.158 0,0 m 26.181,42.785 c 7.767,0 14.758,-1.781 20.97,-5.34 C 53.361,33.884 58.313,28.753 62,22.05 65.687,15.348 67.53,7.998 67.53,0.003 c 0,-7.797 -1.798,-15.028 -5.396,-21.69 -3.599,-6.663 -8.539,-11.836 -14.822,-15.514 -6.283,-3.679 -13.364,-5.52 -21.239,-5.52 -7.769,0 -14.831,1.871 -21.185,5.609 -6.356,3.739 -11.305,8.88 -14.849,15.425 -3.545,6.544 -5.316,13.773 -5.316,21.69 0,7.637 1.771,14.817 5.316,21.54 3.544,6.723 8.432,11.943 14.66,15.664 6.23,3.719 13.39,5.578 21.482,5.578" /></g><g
           transform="translate(526.5997,346.1545)"
           id="g28"><path
             id="path30"
             style="fill:#3b3535;fill-opacity:1;fill-rule:nonzero;stroke:none"
             d="m 0,0 -1.185,-7.701 c 0,0 -0.271,-1.309 -1.552,-1.309 h -29.265 c -0.792,0 -1.436,-0.642 -1.436,-1.435 v -22.257 c 0,-0.793 0.644,-1.436 1.436,-1.436 h 24.648 c 0.792,0 1.435,-0.643 1.435,-1.436 v -7.565 c 0,-0.793 -0.643,-1.435 -1.435,-1.435 h -24.648 c -0.792,0 -1.436,-0.643 -1.436,-1.436 v -23.825 c 0,-0.793 0.644,-1.436 1.436,-1.436 h 31.433 c 0.973,0 1.519,-0.641 1.324,-1.694 -0.266,-1.436 -1.245,-7.569 -1.245,-7.569 0,0 -0.089,-1.396 -1.546,-1.396 h -43.747 c -0.793,0 -1.436,0.643 -1.436,1.436 v 80.486 c 0,0.793 0.643,1.436 1.436,1.436 H -1.164 C 0.19,1.428 0,0 0,0" /></g><g
           transform="translate(556.1349,264.2248)"
           id="g32"><path
             id="path34"
             style="fill:#3b3535;fill-opacity:1;fill-rule:nonzero;stroke:none"
             d="m 0,0 c -0.792,0 -1.436,0.643 -1.436,1.436 v 80.486 c 0,0.793 0.644,1.436 1.436,1.436 h 10.911 c 0.793,0 1.436,-0.643 1.436,-1.436 V 12.095 c 0,-0.793 0.642,-1.436 1.435,-1.436 h 31.735 c 0.974,0 1.52,-0.641 1.325,-1.694 C 46.576,7.528 45.597,1.396 45.597,1.396 45.597,1.396 45.508,0 44.05,0 Z" /></g><g
           transform="translate(632.1515,347.5827)"
           id="g36"><path
             id="path38"
             style="fill:#3b3535;fill-opacity:1;fill-rule:nonzero;stroke:none"
             d="m 0,0 c 0.793,0 1.436,-0.643 1.436,-1.436 v -47.076 c 0,-4.972 0.671,-11.143 2.014,-14.086 1.342,-2.944 3.535,-5.371 6.578,-7.28 3.042,-1.911 7.663,-2.865 11.709,-2.865 4.441,0 8.925,0.905 12.023,2.715 3.096,1.811 5.361,4.277 6.794,7.4 1.431,3.122 2.147,9.661 2.147,15.19 v 46.002 c 0,0.793 0.643,1.436 1.436,1.436 h 10.91 c 0.793,0 1.436,-0.643 1.436,-1.436 v -48.09 c 0,-11.218 -3.026,-19.84 -9.075,-25.866 -6.052,-6.026 -14.608,-9.041 -25.671,-9.041 -6.945,0 -13.327,1.374 -18.428,4.118 -5.102,2.744 -8.996,6.713 -11.681,11.904 -2.685,5.192 -4.027,11.286 -4.027,18.288 v 48.687 c 0,0.793 0.643,1.436 1.435,1.436 z" /></g><g
           transform="translate(212.4942,246.7951)"
           id="g40"><path
             id="path42"
             style="fill:#5da3b2;fill-opacity:1;fill-rule:nonzero;stroke:none"
             d="m 0,0 c -32.561,0 -59.051,26.489 -59.051,59.049 0,32.56 26.49,59.051 59.051,59.051 5.684,0 11.307,-0.808 16.712,-2.4 2.282,-0.672 3.588,-3.068 2.916,-5.35 -0.673,-2.282 -3.068,-3.586 -5.351,-2.916 -4.615,1.359 -9.419,2.049 -14.277,2.049 -27.81,0 -50.434,-22.625 -50.434,-50.434 C -50.434,31.24 -27.81,8.616 0,8.616 c 27.809,0 50.433,22.624 50.433,50.433 0,4.592 -0.989,20.179 -13.71,28 -6.724,4.134 -15.851,5.918 -22.711,4.443 C 0.836,88.656 -8.83,81.776 -14.719,71.043 c -2.912,-5.308 -2.569,-7.826 -2.191,-8.348 0.267,-0.369 1.409,-0.78 3.462,-0.401 1.962,0.364 4.737,1.155 7.675,1.993 5.249,1.497 11.198,3.193 15.968,3.48 C 16.666,68.145 21.816,65.655 24.34,60.91 26.833,56.22 26.114,50.344 22.464,45.577 18.496,40.394 11.141,33.969 6.233,30.556 -1.193,25.389 -8.6,21.354 -8.911,21.186 c -2.091,-1.137 -4.706,-0.361 -5.842,1.73 -1.136,2.091 -0.361,4.706 1.73,5.843 0.072,0.039 7.313,3.985 14.335,8.87 4.433,3.084 10.998,8.859 14.31,13.186 1.551,2.026 1.986,4.401 1.108,6.05 -0.871,1.639 -3.065,2.478 -6.018,2.3 -3.83,-0.23 -9.298,-1.789 -14.121,-3.164 -3.141,-0.897 -6.107,-1.742 -8.47,-2.18 -5.183,-0.96 -9.562,0.435 -12.014,3.824 -2.077,2.873 -3.481,8.247 1.62,17.543 7.044,12.84 18.964,21.39 34.471,24.727 9.023,1.941 20.42,-0.227 29.038,-5.525 C 57.765,84.227 59.05,64.77 59.05,59.049 59.05,26.489 32.56,0 0,0" /></g></g></g></g></svg>