<?xml version="1.0" encoding="UTF-8" standalone="no"?>
<svg
   xmlns:dc="http://purl.org/dc/elements/1.1/"
   xmlns:cc="http://creativecommons.org/ns#"
   xmlns:rdf="http://www.w3.org/1999/02/22-rdf-syntax-ns#"
   xmlns:svg="http://www.w3.org/2000/svg"
   xmlns="http://www.w3.org/2000/svg"
   viewBox="0 0 988 262.66666"
   height="262.66666"
   width="988"
   xml:space="preserve"
   id="svg2"
   version="1.1"><metadata
     id="metadata8"><rdf:RDF><cc:Work
         rdf:about=""><dc:format>image/svg+xml</dc:format><dc:type
           rdf:resource="http://purl.org/dc/dcmitype/StillImage" /></cc:Work></rdf:RDF></metadata><defs
     id="defs6"><clipPath
       id="clipPath18"
       clipPathUnits="userSpaceOnUse"><path
         id="path16"
         d="M 0,197 H 741 V 0 H 0 Z" /></clipPath></defs><g
     transform="matrix(1.3333333,0,0,-1.3333333,0,262.66667)"
     id="g10"><g
       id="g12"><g
         clip-path="url(#clipPath18)"
         id="g14"><g
           transform="translate(392.78,131.0349)"
           id="g20"><path
             id="path22"
             style="fill:#f3a800;fill-opacity:1;fill-rule:nonzero;stroke:none"
             d="m 0,0 h -10.965 c -0.302,0 -0.547,0.245 -0.547,0.547 v 23.32 c 0,0.302 0.245,0.547 0.547,0.547 H 0 c 0.302,0 0.547,-0.245 0.547,-0.547 V 0.547 C 0.547,0.245 0.302,0 0,0" /></g><g
           transform="translate(412.7906,131.0349)"
           id="g24"><path
             id="path26"
             style="fill:#f3a800;fill-opacity:1;fill-rule:nonzero;stroke:none"
             d="m 0,0 h -10.965 c -0.302,0 -0.547,0.245 -0.547,0.547 v 23.32 c 0,0.302 0.245,0.547 0.547,0.547 H 0 c 0.302,0 0.547,-0.245 0.547,-0.547 V 0.547 C 0.547,0.245 0.302,0 0,0" /></g><g
           transform="translate(310.1165,110.2297)"
           id="g28"><path
             id="path30"
             style="fill:#f3a800;fill-opacity:1;fill-rule:nonzero;stroke:none"
             d="m 0,0 v -15.612 c 0,-1.018 -0.825,-1.842 -1.842,-1.842 h -40.496 c -1.018,0 -1.842,-0.825 -1.842,-1.842 v -47.532 c 0,-1.017 -0.825,-1.842 -1.842,-1.842 h -15.613 c -1.017,0 -1.842,0.825 -1.842,1.842 V 43.378 c 0,1.018 0.825,1.842 1.842,1.842 h 15.613 c 1.017,0 1.842,-0.824 1.842,-1.842 V 3.684 c 0,-1.017 0.824,-1.842 1.842,-1.842 H -1.842 C -0.825,1.842 0,1.017 0,0" /></g><g
           transform="translate(413.3433,110.2297)"
           id="g32"><path
             id="path34"
             style="fill:#f3a800;fill-opacity:1;fill-rule:nonzero;stroke:none"
             d="m 0,0 v -15.612 c 0,-1.018 -0.825,-1.842 -1.842,-1.842 h -40.496 c -1.017,0 -1.842,-0.825 -1.842,-1.842 v -47.532 c 0,-1.017 -0.825,-1.842 -1.842,-1.842 h -15.613 c -1.017,0 -1.842,0.825 -1.842,1.842 V 43.378 c 0,1.018 0.825,1.842 1.842,1.842 h 15.613 c 1.017,0 1.842,-0.824 1.842,-1.842 V 3.684 c 0,-1.017 0.825,-1.842 1.842,-1.842 H -1.842 C -0.825,1.842 0,1.017 0,0" /></g><g
           transform="translate(511.9584,84.5712)"
           id="g36"><path
             id="path38"
             style="fill:#f3a800;fill-opacity:1;fill-rule:nonzero;stroke:none"
             d="M 0,0 V -0.568 H -0.026 C 0,-0.388 0,-0.181 0,0" /></g><g
           transform="translate(598.671,98.9212)"
           id="g40"><path
             id="path42"
             style="fill:#f3a800;fill-opacity:1;fill-rule:nonzero;stroke:none"
             d="m 0,0 v -15.61 c 0,-1.017 -0.825,-1.842 -1.842,-1.842 h -41.42 c -1.017,0 -1.842,0.825 -1.842,1.842 V 0 c 0,1.017 0.825,1.842 1.842,1.842 h 41.42 C -0.825,1.842 0,1.017 0,0" /></g><g
           transform="translate(634.6873,148.8501)"
           id="g44"><path
             id="path46"
             style="fill:#f3a800;fill-opacity:1;fill-rule:nonzero;stroke:none"
             d="m 0,0 h 15.607 c 1.017,0 1.842,-0.825 1.842,-1.842 v -103.616 c 0,-1.018 -0.825,-1.842 -1.842,-1.842 H 0 c -1.017,0 -1.842,0.824 -1.842,1.842 V -1.842 C -1.842,-0.825 -1.017,0 0,0" /></g><g
           transform="translate(710.3481,59.0143)"
           id="g48"><path
             id="path50"
             style="fill:#f3a800;fill-opacity:1;fill-rule:nonzero;stroke:none"
             d="m 0,0 v -15.612 c 0,-1.018 -0.825,-1.842 -1.842,-1.842 h -30.012 c -1.017,0 -1.842,0.824 -1.842,1.842 V 94.594 c 0,1.017 0.825,1.842 1.842,1.842 h 15.586 c 1.018,0 1.843,-0.825 1.843,-1.842 V 3.684 c 0,-1.017 0.824,-1.842 1.842,-1.842 H -1.842 C -0.825,1.842 0,1.017 0,0" /></g><g
           transform="translate(530.841,130.2199)"
           id="g52"><path
             id="path54"
             style="fill:#f3a800;fill-opacity:1;fill-rule:nonzero;stroke:none"
             d="m 0,0 v -15.612 c 0,-1.018 -0.825,-1.842 -1.842,-1.842 h -15.199 c -1.017,0 -1.842,-0.825 -1.842,-1.842 v -26.353 c 0,-0.18 0,-0.387 -0.026,-0.568 -0.129,-11.486 -4.862,-21.883 -12.415,-29.437 -7.683,-7.682 -18.288,-12.442 -30.006,-12.442 v 0.026 c -0.052,-0.026 -0.103,-0.026 -0.155,-0.026 -0.466,0 -0.828,0.362 -0.828,0.828 v 17.641 c 0,0.466 0.362,0.827 0.828,0.827 0.052,0 0.103,0 0.155,-0.025 v 0.025 c 6.389,0 12.183,2.587 16.374,6.778 4.061,4.061 6.622,9.648 6.777,15.805 v 26.921 c 0,1.017 -0.825,1.842 -1.842,1.842 h -19.467 c -1.017,0 -1.842,-0.825 -1.842,-1.842 v -20.682 c 0,-1.018 -0.825,-1.842 -1.842,-1.842 h -15.612 c -1.018,0 -1.842,0.824 -1.842,1.842 v 63.362 c 0,1.017 0.824,1.842 1.842,1.842 h 15.612 c 1.017,0 1.842,-0.825 1.842,-1.842 v -19.7 c 0,-1.017 0.825,-1.842 1.842,-1.842 H -1.842 C -0.825,1.842 0,1.017 0,0" /></g><g
           transform="translate(143.0146,163.4273)"
           id="g56"><path
             id="path58"
             style="fill:#f3a800;fill-opacity:1;fill-rule:nonzero;stroke:none"
             d="m 0,0 -27.208,15.709 c -6.32,3.649 -14.107,3.649 -20.427,0 l -54.514,-31.474 c -6.319,-3.648 -10.212,-10.389 -10.213,-17.686 l -0.001,-1.313 c 0,-1.723 0.919,-3.315 2.411,-4.177 l 35.011,-20.214 c 1.986,-1.146 4.467,0.287 4.467,2.579 v 7.946 c 0,1.723 0.919,3.315 2.411,4.176 L 0,-5.158 C 1.985,-4.011 1.985,-1.146 0,0" /></g><g
           transform="translate(30.6561,98.4452)"
           id="g60"><path
             id="path62"
             style="fill:#f3a800;fill-opacity:1;fill-rule:nonzero;stroke:none"
             d="m 0,0 v -31.417 c 0,-7.298 3.893,-14.042 10.214,-17.691 l 54.513,-31.473 c 6.319,-3.648 14.104,-3.649 20.423,-0.002 l 1.138,0.656 c 1.492,0.861 2.412,2.453 2.412,4.177 v 40.427 c 0,2.292 -2.482,3.725 -4.467,2.579 l -6.881,-3.973 c -1.492,-0.862 -3.331,-0.862 -4.823,0 L 4.467,2.579 C 2.481,3.725 0,2.292 0,0" /></g><g
           transform="translate(143.1115,33.6309)"
           id="g64"><path
             id="path66"
             style="fill:#f3a800;fill-opacity:1;fill-rule:nonzero;stroke:none"
             d="m 0,0 27.208,15.709 c 6.32,3.649 10.214,10.392 10.214,17.69 v 62.947 c 0,7.296 -3.892,14.038 -10.21,17.688 l -1.137,0.657 c -1.492,0.862 -3.331,0.862 -4.823,0 L -13.759,94.478 c -1.985,-1.146 -1.985,-4.012 0,-5.158 l 6.881,-3.973 c 1.492,-0.861 2.411,-2.453 2.411,-4.176 V 2.579 C -4.467,0.287 -1.985,-1.146 0,0" /></g></g></g></g></svg>